<svg width="32" height="29" viewBox="0 0 32 29" fill="none" xmlns="http://www.w3.org/2000/svg">
<path d="M5.70587 4.82025C9.16652 -1.01959 16.7796 -1.40951 20.9324 2.87298C23.395 5.41251 24.3598 8.25205 24.6483 10.1855C27.3113 9.873 30.5798 10.5996 31.7235 14.7802C32.8309 18.8292 30.3392 21.399 28.9549 22.1777L10.7186 27.4111C7.40582 28.5223 2.74362 28.61 0.742984 23.3583C-1.27237 18.0677 1.2229 14.0334 3.34943 11.998C3.35609 10.3824 3.87223 7.91456 5.70587 4.82025ZM14.3572 2.87298C8.62887 2.87298 6.32921 7.92414 5.78791 10.9003H9.04865V12.8466C6.97232 12.8466 3.24875 13.6454 2.47345 17.5185C1.61645 21.8011 3.34677 25.3049 6.80744 25.6943C8.5847 25.8941 9.90438 24.7663 10.6844 23.5908C11.0666 22.6228 11.2839 21.5333 11.3045 21.0234L5.42169 22.581C3.34544 20.2452 3.82116 17.6867 5.42169 15.9628C5.99367 15.3469 6.89152 14.9264 7.87287 14.8242L7.84552 14.7929C11.9071 13.7384 19.2407 11.5965 22.2576 10.7314C21.9033 7.73718 19.9784 2.87308 14.3572 2.87298ZM29.6473 15.9482C29.3011 12.8339 27.225 11.6911 22.7264 12.8466C20.1977 13.4961 14.8916 15.1781 11.4803 16.1904C12.2105 16.9953 12.7641 18.1845 12.9617 19.8515C13.2202 22.032 12.9344 23.6748 12.452 24.8603C17.7082 23.3443 26.1243 20.9029 26.8787 20.6201C27.9169 20.2307 29.9933 19.0628 29.6473 15.9482ZM27.2254 19.0761L14.075 22.9697L13.7293 21.8017L26.8797 17.9081L27.2254 19.0761ZM27.9178 16.3515L14.075 20.6337L13.7293 19.4658L27.5721 15.1835L27.9178 16.3515ZM10.2674 19.0771C10.2674 18.2984 9.78252 16.8184 7.84455 17.1298C5.90678 17.4414 5.7687 19.4664 6.46076 20.2451L10.2674 19.0771ZM26.1873 14.4042L14.075 18.2978L13.7293 17.1298L25.8416 13.2363L26.1873 14.4042Z" fill="#1A1A1A"/>
</svg>
